<?xml version="1.0" encoding="UTF-8"?>
<svg width="18px" height="18px" viewBox="0 0 18 18" version="1.1" xmlns="http://www.w3.org/2000/svg" xmlns:xlink="http://www.w3.org/1999/xlink">
    <title>price-tag-3-line</title>
    <g id="Welcome" stroke="none" stroke-width="1" fill="none" fill-rule="evenodd">
        <g id="Single-Product-Page" transform="translate(-718.000000, -886.000000)">
            <g id="category-and-tags" transform="translate(716.000000, 820.000000)">
                <g id="price-tag-3-line" transform="translate(11.000000, 75.000000) scale(-1, 1) translate(-11.000000, -75.000000) translate(2.000000, 66.000000)">
                    <polygon id="Path" points="0 0 18 0 18 18 0 18"></polygon>
                    <path d="M8.175,1.575 L15.59925,2.63625 L16.65975,10.06125 L9.76575,16.95525 C9.47287511,17.2480365 8.99812489,17.2480365 8.70525,16.95525 L1.28025,9.53025 C0.987463546,9.23737511 0.987463546,8.76262489 1.28025,8.46975 L8.175,1.575 Z M8.70525,3.1665 L2.871,9 L9.2355,15.36375 L15.069,9.53025 L14.274,3.9615 L8.70525,3.1665 Z M10.29525,7.9395 C9.91623587,7.56035189 9.76828547,7.00780296 9.9071303,6.48999304 C10.0459751,5.97218312 10.4505213,5.56777985 10.9683803,5.42911804 C11.4862393,5.29045623 12.0387359,5.43860189 12.41775,5.81775 C12.7967641,6.19689811 12.9447145,6.74944704 12.8058697,7.26725696 C12.6670249,7.78506688 12.2624787,8.18947015 11.7446197,8.32813196 C11.2267607,8.46679377 10.6742641,8.31864811 10.29525,7.9395 L10.29525,7.9395 Z" id="Shape" fill="#696969" fill-rule="nonzero"></path>
                </g>
            </g>
        </g>
    </g>
</svg>