<?xml version="1.0" encoding="UTF-8"?>
<svg width="20px" height="18px" viewBox="0 0 20 18" version="1.1" xmlns="http://www.w3.org/2000/svg" xmlns:xlink="http://www.w3.org/1999/xlink">
    <title>shopping-cart-line</title>
    <path d="M2.5,11.5 L2.5,2.5 L1,2.5 L1,1 L3.25,1 C3.66421356,1 4,1.33578644 4,1.75 L4,10.75 L13.3285,10.75 L14.8285,4.75 L5.5,4.75 L5.5,3.25 L15.79,3.25 C16.021011,3.25000607 16.2391298,3.35647007 16.3812509,3.53859012 C16.5233719,3.72071017 16.5736357,3.95816321 16.5175,4.18225 L14.6425,11.68225 C14.5589057,12.0159483 14.2590095,12.25 13.915,12.25 L3.25,12.25 C2.83578644,12.25 2.5,11.9142136 2.5,11.5 L2.5,11.5 Z M4,16.75 C3.17157288,16.75 2.5,16.0784271 2.5,15.25 C2.5,14.4215729 3.17157288,13.75 4,13.75 C4.82842712,13.75 5.5,14.4215729 5.5,15.25 C5.5,16.0784271 4.82842712,16.75 4,16.75 Z M13,16.75 C12.1715729,16.75 11.5,16.0784271 11.5,15.25 C11.5,14.4215729 12.1715729,13.75 13,13.75 C13.8284271,13.75 14.5,14.4215729 14.5,15.25 C14.5,16.0784271 13.8284271,16.75 13,16.75 Z" id="Shape" fill="#fff"></path>
</svg>