<?xml version="1.0" encoding="UTF-8"?>
<svg width="20px" height="20px" viewBox="0 0 20 20" version="1.1" xmlns="http://www.w3.org/2000/svg" xmlns:xlink="http://www.w3.org/1999/xlink">
    <title>star-line copy 4</title>
    <g id="Welcome" stroke="none" stroke-width="1" fill="none" fill-rule="evenodd">
        <g id="Homepage" transform="translate(-1059.000000, -2864.000000)">
            <g id="Featured-products" transform="translate(-111.000000, 2120.000000)">
                <g id="Product-hover" transform="translate(949.000000, 166.000000)">
                    <g id="Star-rating">
                        <g transform="translate(129.000000, 578.000000)">
                            <g id="star-line-copy-4" transform="translate(92.000000, 0.000000)">
                                <polygon id="Path" points="0 0 20 0 20 20 0 20"></polygon>
                                <path d="M10,15.2166667 L4.1225,18.5066667 L5.435,11.9 L0.489166667,7.32666667 L7.17833333,6.53333333 L10,0.416666667 L12.8216667,6.53333333 L19.5108333,7.32666667 L14.565,11.9 L15.8775,18.5066667 L10,15.2166667 Z M10,13.3066667 L13.5391667,15.2875 L12.7483333,11.31 L15.7258333,8.55583333 L11.6983333,8.07833333 L10,4.39583333 L8.30166667,8.07916667 L4.27416667,8.55583333 L7.25166667,11.31 L6.46083333,15.2875 L10,13.3066667 Z" id="Shape" fill="#FFFFFF" fill-rule="nonzero"></path>
                            </g>
                        </g>
                    </g>
                </g>
            </g>
        </g>
    </g>
</svg>